<svg xmlns="http://www.w3.org/2000/svg" version="1.1" xmlnsXlink="http://www.w3.org/1999/xlink" xmlnsSvgjs="http://svgjs.com/svgjs" width="512" height="512" x="0" y="0" viewBox="0 0 512 512" style="enable-background:new 0 0 512 512" xmlSpace="preserve" class=""><g>
<g>
	<path style="" d="M13.207,473.78C5.914,473.78,0,467.866,0,460.572v-195.58c0-56.23,20.728-110.17,58.366-151.884   c10.05-11.126,21.191-21.26,33.12-30.125c2.982-2.236,6.118-4.447,9.284-6.543c0.312-0.223,0.731-0.515,1.236-0.822   C139.073,51.15,182.207,38.22,226.772,38.22c60.575,0,117.521,23.584,160.344,66.406c23.554,23.555,41.755,52.217,53.017,83.375   l58.72,0.271c3.908,0.018,7.607,1.765,10.103,4.772c2.494,3.006,3.532,6.964,2.829,10.807l-37.655,206.261   c-1.144,6.265-6.595,10.821-12.964,10.835l-7.62,0.019v39.605c0,7.294-5.914,13.207-13.207,13.207H13.207z" fill="#ffffff" data-original="#ffffff" class=""></path>
	<g>
		<path style="" d="M439.359,264.992v82.777l-216.428,84.328L12.23,404.375V264.992    c0-55.031,20.802-105.175,54.965-143.037c0,0,40.591-35,40.833-35.132c33.767-22.365,74.248-35.396,117.766-35.396    c58.971,0,112.373,23.906,151.005,62.537C415.453,152.619,439.359,205.999,439.359,264.992z" fill="#bacde5" data-original="#bacde5" class=""></path>
		<g>
			<g>
				<path style="" d="M251.1,156.825c4.879-6.567,7.664-14.499,9.139-22.546c1.475-8.047,1.702-16.264,1.888-24.443      c0.656,0.093,1.232-0.34,1.888-0.247h60.792c0.257,15.549-2.328,31.984-8.158,46.401L251.1,156.825z" fill="#ffb05c" data-original="#ffb05c"></path>
				<polygon style="" points="287.62,116.334 287.76,98.349 297.736,98.068 297.455,116.334     " fill="#ffe8d1" data-original="#ffe8d1" class=""></polygon>
			</g>
			<g>
				<path style="" d="M24.045,215.837c4.879-6.567,7.664-14.499,9.139-22.546c1.475-8.047,1.702-16.264,1.888-24.443      c0.656,0.093,1.232-0.34,1.888-0.247h60.792c0.257,15.549-2.328,31.984-8.158,46.401L24.045,215.837z" fill="#ffb05c" data-original="#ffb05c"></path>
				<polygon style="" points="60.564,175.346 60.705,157.361 70.68,157.08 70.4,175.346     " fill="#ffe8d1" data-original="#ffe8d1" class=""></polygon>
			</g>
			<g>
				<path style="" d="M320.509,194.199c4.879-6.567,7.664-14.499,9.139-22.546c1.475-8.047,1.702-16.264,1.888-24.443      c0.656,0.093,1.232-0.34,1.888-0.247h60.792c0.257,15.549-2.328,31.984-8.158,46.401L320.509,194.199z" fill="#ff9fc6" data-original="#ff9fc6" class=""></path>
				<polygon style="" points="357.029,153.708 357.17,135.723 367.145,135.442 366.864,153.708     " fill="#ffe8d1" data-original="#ffe8d1" class=""></polygon>
			</g>
			<g>
				<path style="" d="M134.553,86.824c0.264,15.563-2.311,31.984-8.145,46.402l-65.553,0.836      c2.73-3.676,4.821-7.793,6.34-12.107c9.443-10.456,19.877-19.965,31.192-28.374c1.772-1.329,5.048-0.139,6.87-1.402      c1.165-0.808,0.86-4.09,2.045-4.871c0.242-0.176,0.484-0.352,0.726-0.484H134.553z" fill="#7eb291" data-original="#7eb291"></path>
				<path style="" d="M107.302,87.308l-0.088,6.274h-8.827C101.292,91.403,104.264,89.311,107.302,87.308z" fill="#ffe8d1" data-original="#ffe8d1" class=""></path>
			</g>
		</g>
		<g>
			<g>
				<path style="" d="M181.787,238.367c0,0,41.55,11.157,60.052,32.743c18.503,21.586,31.866,137.057,31.866,137.057      H28.716c0,0,5.14-118.554,27.754-139.455c22.614-20.901,75.724-33.921,75.724-33.921L181.787,238.367z" fill="#ffe8d1" data-original="#ffe8d1" class=""></path>
				<path style="" d="M104.612,390.103c-0.325,0-0.594-0.254-0.611-0.58l-3.599-74.01      c-0.016-0.337,0.244-0.623,0.58-0.641c0.355-0.017,0.623,0.243,0.641,0.58l3.599,74.01c0.016,0.337-0.244,0.623-0.58,0.641      C104.631,390.103,104.622,390.103,104.612,390.103z" fill="#5a2250" data-original="#5a2250" class=""></path>
				<path style="" d="M226.421,390.103c-0.325,0-0.594-0.254-0.611-0.58l-3.599-74.01      c-0.016-0.337,0.244-0.623,0.58-0.641c0.369-0.017,0.624,0.243,0.641,0.58l3.599,74.01c0.016,0.337-0.244,0.623-0.58,0.641      C226.44,390.103,226.431,390.103,226.421,390.103z" fill="#5a2250" data-original="#5a2250" class=""></path>
			</g>
			<g>
				<g>
					<path style="" d="M216.012,108.792c4.259,0.503,8.835,1.381,11.737,4.539c1.195,1.301,2.016,2.91,2.584,4.583       c1.639,4.829,1.17,10.334-1.263,14.816c7.571,2.458,12.467,11.227,10.586,18.962c-1.264,5.197-5.068,9.446-9.383,12.608       c-7.4,5.423-16.48,8.201-25.594,9.245c-9.114,1.044-18.332,0.442-27.471-0.354c-7.112-0.619-14.589-1.494-20.352-5.706       c-5.793-4.235-8.97-11.349-9.832-18.473c-1.309-10.822,2.639-22.015,9.977-29.997c4.184-4.551,8.16-6.834,14.098-8.11       c6.862-1.474,13.839-2.415,20.846-2.823C199.968,107.615,208.031,107.849,216.012,108.792z" fill="#5a2250" data-original="#5a2250" class=""></path>
					<g>
						<g>
							<path style="" d="M221.893,181.157c-0.695,8.038-1.872,17.098-3.842,24.747         c-1.85,7.202-4.409,13.148-7.93,15.837c-4.431,3.38-16.758,4.98-27.081,4.61l-0.078,0.713l-1.174,11.301l-1.195,11.365         c0,0-5.977,9.528-22.939,9.304c-16.962-0.224-25.019-19.424-25.019-19.424s0.905-26.539,2.05-32.967         c-10.174,1.116-20.908-4.917-23.046-15.376c-1.279-6.213,0.602-13.576,6.118-17.205c0.416-0.275,4.147-2.177,5.859-3.06         c0.53-0.265,0.857-0.449,0.857-0.449c-0.832-4.375-1.125-8.931-0.722-13.592c2.364-27.329,26.445-47.561,53.774-45.197         c2.306,0.199,4.549,0.557,6.747,1.058c0.835,0.187,1.652,0.388,2.466,0.622c3.912,1.107,7.621,2.671,11.051,4.637         c13.098,7.448,22.314,20.629,24.564,35.842c0.305,1.957,0.476,3.951,0.531,5.968l0.05-0.012         C222.931,159.881,222.905,169.45,221.893,181.157z" fill="#ff8d9e" data-original="#ff8d9e"></path>
							<path style="opacity:0.25;" d="M221.893,181.157c-0.695,8.038-1.872,17.098-3.842,24.747         c-1.85,7.202-4.409,13.148-7.93,15.837c-4.431,3.38-16.758,4.98-27.081,4.61l-0.078,0.713l-1.174,11.301l-1.195,11.365         c0,0-5.977,9.528-22.939,9.304c-16.962-0.224-25.019-19.424-25.019-19.424s0.905-26.539,2.05-32.967         c-10.174,1.116-20.908-4.917-23.046-15.376c-1.279-6.213,0.602-13.576,6.118-17.205c0.416-0.275,4.147-2.177,5.859-3.06         c0.53-0.265,0.857-0.449,0.857-0.449c-0.832-4.375-1.125-8.931-0.722-13.592c2.364-27.329,26.445-47.561,53.774-45.197         c2.306,0.199,4.549,0.557,6.747,1.058c0.835,0.187,1.652,0.388,2.466,0.622c3.912,1.107,7.621,2.671,11.051,4.637         c13.098,7.448,22.314,20.629,24.564,35.842c0.305,1.957,0.476,3.951,0.531,5.968l0.05-0.012         C222.931,159.881,222.905,169.45,221.893,181.157z" fill="#5a2250" data-original="#5a2250" class=""></path>
							<g style="opacity:0.15;">
								<path style="" d="M183.695,192.658c-0.654,7.556-7.309,13.152-14.865,12.498          c-7.556-0.654-13.152-7.309-12.498-14.865s7.309-13.152,14.865-12.498S184.348,185.102,183.695,192.658z" fill="#5a2250" data-original="#5a2250" class=""></path>
								<path style="" d="M221.893,181.157c-0.695,8.038-1.872,17.098-3.842,24.747          c-0.245-0.005-0.488-0.026-0.732-0.047c-6.95-0.601-12.097-6.723-11.496-13.673c0.601-6.95,6.722-12.081,13.672-11.48          C220.322,180.776,221.127,180.928,221.893,181.157z" fill="#5a2250" data-original="#5a2250" class=""></path>
							</g>
							<g>
								<path style="" d="M187.384,174.776c-0.277,2.417-2.229,4.178-4.36,3.934c-2.131-0.244-3.634-2.401-3.358-4.817          c0.276-2.417,2.229-4.178,4.36-3.934C186.157,170.203,187.661,172.36,187.384,174.776z" fill="#5a2250" data-original="#5a2250" class=""></path>
								<path style="" d="M216.148,175.975c-0.276,2.417-2.043,4.199-3.946,3.981c-1.903-0.218-3.221-2.354-2.945-4.77          c0.277-2.417,2.044-4.199,3.946-3.981C215.106,171.423,216.425,173.558,216.148,175.975z" fill="#5a2250" data-original="#5a2250" class=""></path>
								<g>
									<path style="" d="M198.151,190.893c-1.359,0-2.447-0.32-2.54-0.348c-0.324-0.097-0.505-0.436-0.408-0.761           c0.097-0.322,0.439-0.505,0.76-0.408c0.042,0.009,3.991,1.157,5.72-1.206c1.353-1.849,0.219-11.234-0.814-16.714           c-0.062-0.333,0.156-0.651,0.488-0.714c0.327-0.082,0.649,0.155,0.714,0.486c0.283,1.505,2.707,14.781,0.599,17.664           C201.49,190.502,199.656,190.893,198.151,190.893z" fill="#5a2250" data-original="#5a2250" class=""></path>
									<path style="" d="M135.063,202.136c-0.005,0-0.012,0-0.017,0c-0.337-0.009-0.603-0.29-0.593-0.628           c0.197-6.881-1.892-13.76-5.88-19.368c-1.826-2.569-5.672-6.935-10.906-7.324c-0.337-0.026-0.589-0.32-0.564-0.656           c0.025-0.34,0.341-0.557,0.655-0.565c5.734,0.43,9.862,5.095,11.811,7.835c4.142,5.826,6.31,12.967,6.106,20.112           C135.665,201.873,135.393,202.136,135.063,202.136z" fill="#5a2250" data-original="#5a2250" class=""></path>
								</g>
								<path style="" d="M197.029,199.81c-1.96,0-3.931-0.804-5.287-2.218c-0.865-0.901-1.454-1.973-2.024-3.012          c-0.162-0.297-0.054-0.669,0.242-0.83c0.291-0.163,0.666-0.056,0.831,0.241c0.531,0.969,1.08,1.969,1.833,2.754          c1.397,1.457,3.578,2.132,5.553,1.728c1.977-0.408,3.712-1.892,4.421-3.781c0.117-0.316,0.471-0.482,0.787-0.357          c0.316,0.118,0.476,0.471,0.357,0.787c-0.851,2.272-2.94,4.059-5.317,4.547C197.964,199.762,197.496,199.81,197.029,199.81z          " fill="#5a2250" data-original="#5a2250" class=""></path>
							</g>
							<g>
								<path style="" d="M176.57,157.844c-0.709,0.629-1.339,1.431-1.449,2.372c-0.116,0.982,0.37,1.967,1.095,2.64          c0.725,0.673,1.663,1.07,2.612,1.347c2.884,0.841,6.057,0.65,8.82-0.53c1.356-0.579,2.718-1.53,3.061-2.964          c0.401-1.677-0.806-3.404-2.347-4.179C184.918,154.798,179.45,155.286,176.57,157.844z" fill="#5a2250" data-original="#5a2250" class=""></path>
								<path style="" d="M220.671,159.557c0.709,0.629,1.339,1.431,1.449,2.372c0.116,0.982-0.37,1.967-1.095,2.64          c-0.725,0.673-1.663,1.07-2.612,1.347c-2.884,0.841-6.057,0.65-8.82-0.53c-1.356-0.579-2.718-1.53-3.061-2.964          c-0.401-1.677,0.806-3.404,2.347-4.179C212.323,156.511,217.791,156.999,220.671,159.557z" fill="#5a2250" data-original="#5a2250" class=""></path>
							</g>
						</g>
						<path style="" d="M198.709,117.302c-0.499,4.414-1.783,10.737-5.023,16.422        c-5.713,10.062-19.532,10.006-19.532,10.006s1.194,10.794-3.376,20.82c-4.569,10.01-18.869,15.325-18.869,15.325l-5.118,9.459        c-0.659,1.217-2.428,1.158-2.989-0.107c-1.496-3.371-4.124-8.689-7.194-12.234c-4.781-5.558-13.637-5.452-13.637-5.452        l-0.232-0.037c0.543-0.271,0.878-0.46,0.878-0.46c-0.852-4.481-0.617-9.132-0.739-13.921        c-1.055-41.352,16.086-48.377,55.075-46.291c2.367,0.127,4.659,0.571,6.91,1.084c0.855,0.191,1.691,0.398,2.525,0.637        C191.398,113.687,195.197,115.289,198.709,117.302z" fill="#5a2250" data-original="#5a2250" class=""></path>
					</g>
				</g>
				<path style="" d="M182.961,227.065l-1.174,11.301c-2.277,0.228-7.314-0.337-14.047-2.623      c-12.913-4.383-13.506-15.303-13.506-15.303C162.995,225.829,178.071,226.855,182.961,227.065z" fill="#5a2250" data-original="#5a2250" class=""></path>
			</g>
		</g>
		<rect x="12.23" y="404.375" style="" width="427.128" height="56.197" fill="#ae85a6" data-original="#ae85a6" class=""></rect>
		<path style="" d="M132.502,425.163l-26.415-14.051H310.1l25.291,15.737    C335.391,426.849,132.502,424.039,132.502,425.163z" fill="#5a2250" data-original="#5a2250" class=""></path>
		<g>
			<path style="" d="M29.333,416.733c0,0-7.672-33.724,14.423-45.821c22.094-12.097,88.069,1.1,108.322,4.399     c20.253,3.299,82.546,12.097,82.546,12.097s24.549-16.495,30.993-17.962c6.444-1.466,30.379-9.164,31.3-5.865     c0.921,3.299-20.56,16.129-20.56,16.129s9.513-0.733,13.195,1.1c3.682,1.833,17.491,8.064,16.57,11.363     c-0.921,3.299-18.105-2.199-21.787-1.466c-3.682,0.733-11.968,2.566-11.968,2.566s30.379,4.765,30.072,8.797     s-27.924-0.733-30.686,0c-2.762,0.733,16.264,5.132,16.264,8.431c0,3.299-22.401-1.833-24.549-0.733     c-2.148,1.1-12.581,7.698-30.072,5.132S29.333,416.733,29.333,416.733z" fill="#ff8d9e" data-original="#ff8d9e"></path>
			<path style="opacity:0.25;" d="M29.333,416.733c0,0-7.672-33.724,14.423-45.821     c22.094-12.097,88.069,1.1,108.322,4.399c20.253,3.299,82.546,12.097,82.546,12.097s24.549-16.495,30.993-17.962     c6.444-1.466,30.379-9.164,31.3-5.865c0.921,3.299-20.56,16.129-20.56,16.129s9.513-0.733,13.195,1.1     c3.682,1.833,17.491,8.064,16.57,11.363c-0.921,3.299-18.105-2.199-21.787-1.466c-3.682,0.733-11.968,2.566-11.968,2.566     s30.379,4.765,30.072,8.797s-27.924-0.733-30.686,0c-2.762,0.733,16.264,5.132,16.264,8.431c0,3.299-22.401-1.833-24.549-0.733     c-2.148,1.1-12.581,7.698-30.072,5.132S29.333,416.733,29.333,416.733z" fill="#5a2250" data-original="#5a2250" class=""></path>
		</g>
		<g>
			<path style="" d="M202.371,406.496l51.667-204.47c0.248-0.981,1.133-1.667,2.144-1.662l241.632,1.116     L460.159,407.74c0,0-227.005,0.494-255.584,1.481C203.115,409.271,202.013,407.912,202.371,406.496z" fill="#5a2250" data-original="#5a2250" class=""></path>
			<path style="" d="M357.685,303.58l-34.471,140.13h27.352l31.848-140.13     C382.413,303.58,357.123,303.017,357.685,303.58z" fill="#5a2250" data-original="#5a2250" class=""></path>
			<path style="" d="M323.214,443.709l-14.775-3.526c-2.539-0.606-2.099-4.342,0.511-4.342h27.003l14.612,7.868     H323.214z" fill="#5a2250" data-original="#5a2250" class=""></path>
			<path style="" d="M350.566,444.259c-0.042,0-0.086-0.004-0.129-0.015c-0.296-0.071-0.477-0.37-0.406-0.664     l29.431-121.75c0.834-3.45,0.142-7.094-1.898-9.996c-2.041-2.902-5.234-4.787-8.762-5.17c-6.167-0.675-11.883,3.36-13.33,9.377     L324.263,443.56c-0.072,0.295-0.362,0.484-0.665,0.404c-0.294-0.073-0.476-0.372-0.403-0.666l31.208-127.517     c1.576-6.55,7.816-10.974,14.518-10.211c3.842,0.417,7.322,2.47,9.543,5.632c2.223,3.16,2.976,7.128,2.069,10.886l-29.431,121.75     C351.04,444.089,350.814,444.259,350.566,444.259z" fill="#ffe8d1" data-original="#ffe8d1" class=""></path>
			<path style="" d="M213.434,409.039c-0.043,0-0.086-0.004-0.13-0.015c-0.296-0.073-0.476-0.37-0.404-0.666     l50.58-207.946c0.072-0.294,0.367-0.473,0.665-0.404c0.296,0.073,0.476,0.37,0.404,0.666l-50.58,207.946     C213.908,408.872,213.682,409.039,213.434,409.039z" fill="#ffe8d1" data-original="#ffe8d1" class=""></path>
			<g>
				<path style="" d="M311.224,379.441h-57.701c-0.304,0-0.55-0.247-0.55-0.55s0.246-0.55,0.55-0.55h57.701      c0.304,0,0.55,0.247,0.55,0.55S311.529,379.441,311.224,379.441z" fill="#ffe8d1" data-original="#ffe8d1" class=""></path>
				<path style="" d="M306.728,387.308h-57.701c-0.304,0-0.55-0.247-0.55-0.55s0.246-0.55,0.55-0.55h57.701      c0.304,0,0.55,0.247,0.55,0.55S307.033,387.308,306.728,387.308z" fill="#ffe8d1" data-original="#ffe8d1" class=""></path>
				<path style="" d="M301.951,395.176h-57.7c-0.304,0-0.55-0.247-0.55-0.55s0.246-0.55,0.55-0.55h57.7      c0.304,0,0.55,0.247,0.55,0.55S302.255,395.176,301.951,395.176z" fill="#ffe8d1" data-original="#ffe8d1" class=""></path>
			</g>
		</g>
		<g>
			<polygon style="opacity:0.2;" points="99.343,248.127 151.611,460.57 400.882,460.57 119.576,238.011    " fill="#ffffff" data-original="#ffffff" class=""></polygon>
			<g>
				<polygon style="" points="33.188,439.265 30.989,439.162 38.508,275.608 97.438,237.833 98.626,239.686       40.656,276.847     " fill="#5a2250" data-original="#5a2250" class=""></polygon>
				<path style="" d="M16.727,447.456l15.736-13.863L48.2,447.082C48.2,447.082,15.603,447.456,16.727,447.456z" fill="#5a2250" data-original="#5a2250" class=""></path>
				<path style="" d="M43.704,276.369c0,2.406-1.95,4.356-4.356,4.356s-4.356-1.95-4.356-4.356      c0-2.406,1.95-4.356,4.356-4.356S43.704,273.963,43.704,276.369z" fill="#5a2250" data-original="#5a2250" class=""></path>
				<path style="" d="M90.616,250.621l6.479,40.781l46.086-55.64l-36.106-2.918      C97.126,232.041,89.05,240.764,90.616,250.621z" fill="#5a2250" data-original="#5a2250" class=""></path>
			</g>
		</g>
		<g>
			<path style="" d="M386.681,237.128l2.815,0.823c0.664,0.194,0.671,1.132,0.01,1.336l-2.746,0.85     c-4.45,1.378-7.981,4.789-9.51,9.19l-1.277,3.676c-0.223,0.642-1.138,0.619-1.329-0.033l-0.862-2.945     c-1.404-4.796-5.154-8.546-9.95-9.949l-2.75-0.805c-0.669-0.196-0.669-1.144,0-1.34l2.75-0.805     c4.796-1.404,8.546-5.154,9.95-9.95l0.805-2.75c0.196-0.669,1.144-0.669,1.34,0l0.805,2.75     C378.135,231.975,381.885,235.725,386.681,237.128z" fill="#ffe8d1" data-original="#ffe8d1" class=""></path>
			<g>
				<path style="" d="M210.208,84.259l2.814,0.823c0.664,0.194,0.671,1.132,0.01,1.336l-2.746,0.85      c-4.45,1.378-7.981,4.789-9.509,9.19l-1.277,3.676c-0.223,0.642-1.138,0.619-1.329-0.033l-0.862-2.945      c-1.404-4.796-5.154-8.546-9.95-9.949l-2.75-0.805c-0.669-0.196-0.669-1.144,0-1.339l2.75-0.805      c4.796-1.404,8.546-5.154,9.95-9.95l0.805-2.75c0.196-0.669,1.144-0.669,1.34,0l0.805,2.75      C201.661,79.105,205.412,82.856,210.208,84.259z" fill="#ffe8d1" data-original="#ffe8d1" class=""></path>
				<path style="" d="M418.154,428.777l2.815,0.823c0.664,0.194,0.671,1.132,0.01,1.336l-2.746,0.85      c-4.45,1.378-7.981,4.789-9.509,9.19l-1.277,3.676c-0.223,0.642-1.138,0.619-1.329-0.033l-0.862-2.945      c-1.404-4.796-5.154-8.546-9.95-9.95l-2.75-0.805c-0.669-0.196-0.669-1.144,0-1.339l2.75-0.805      c4.796-1.404,8.546-5.154,9.95-9.95l0.805-2.75c0.196-0.669,1.144-0.669,1.339,0l0.805,2.75      C409.608,423.623,413.359,427.373,418.154,428.777z" fill="#ffe8d1" data-original="#ffe8d1" class=""></path>
				<path style="" d="M87.688,428.777l2.814,0.823c0.664,0.194,0.671,1.132,0.01,1.336l-2.746,0.85      c-4.45,1.378-7.981,4.789-9.51,9.19l-1.277,3.676c-0.223,0.642-1.138,0.619-1.329-0.033l-0.862-2.945      c-1.404-4.796-5.154-8.546-9.949-9.95l-2.75-0.805c-0.669-0.196-0.669-1.144,0-1.339l2.75-0.805      c4.796-1.404,8.546-5.154,9.949-9.95l0.805-2.75c0.196-0.669,1.144-0.669,1.34,0l0.805,2.75      C79.142,423.623,82.892,427.373,87.688,428.777z" fill="#ffe8d1" data-original="#ffe8d1" class=""></path>
				<path style="" d="M56.777,242.749l2.815,0.823c0.664,0.194,0.671,1.132,0.01,1.336l-2.746,0.85      c-4.45,1.378-7.981,4.789-9.509,9.19l-1.277,3.676c-0.223,0.642-1.138,0.619-1.329-0.033l-0.862-2.945      c-1.403-4.796-5.154-8.546-9.949-9.949l-2.75-0.805c-0.669-0.196-0.669-1.144,0-1.339l2.75-0.805      c4.796-1.404,8.546-5.154,9.949-9.95l0.805-2.75c0.196-0.669,1.144-0.669,1.339,0l0.805,2.75      C48.23,237.595,51.981,241.345,56.777,242.749z" fill="#ffe8d1" data-original="#ffe8d1" class=""></path>
			</g>
		</g>
	</g>
</g>















</g></svg>